<?xml version="1.0" encoding="UTF-8"?>
<svg version="1.1" xmlns="http://www.w3.org/2000/svg" width="1365" height="768">
<path d="M0 0 C450.45 0 900.9 0 1365 0 C1365 253.44 1365 506.88 1365 768 C914.55 768 464.1 768 0 768 C0 514.56 0 261.12 0 0 Z " fill="#FEFEFE" transform="translate(0,0)"/>
<path d="M0 0 C9.37171566 6.95273201 15.3805441 16.96460807 18.54931641 28.14941406 C18.96371396 31.08073147 19.02714035 33.94200486 18.98681641 36.89941406 C18.97545654 38.0790271 18.97545654 38.0790271 18.96386719 39.2824707 C18.5448532 54.23087118 11.20789406 67.87943039 0.54931641 78.14941406 C-2.07770162 80.39469354 -4.75654265 82.55558773 -7.46630859 84.70019531 C-10.74298837 87.38930293 -13.80911887 90.23980553 -16.88818359 93.14941406 C-26.03018395 101.7061322 -35.93599178 108.64500894 -46.66748047 115.07958984 C-57.42802227 121.53532563 -67.71800614 128.21132182 -77.45068359 136.14941406 C-78.29501953 136.82746094 -79.13935547 137.50550781 -80.00927734 138.20410156 C-88.26248315 145.13512432 -96.37210094 154.95886305 -98.01318359 165.89941406 C-97.70976047 169.24224196 -97.70976047 169.24224196 -95.45068359 171.58691406 C-91.65222192 173.56527952 -88.59726807 173.89982207 -84.45068359 173.14941406 C-80.75322341 171.86894117 -77.54736472 169.88587146 -74.31005859 167.71191406 C-55.7416402 155.2531043 -26.47957134 139.09831485 -3.22021484 143.57910156 C4.63016347 146.038988 8.88682466 151.57259701 12.63232422 158.5949707 C20.27121687 173.65618946 26.88524763 192.01504472 26.54931641 209.14941406 C27.59982178 208.60115967 28.65032715 208.05290527 29.73266602 207.48803711 C69.90195251 186.55653103 69.90195251 186.55653103 90.54931641 178.14941406 C91.30599609 177.83875 92.06267578 177.52808594 92.84228516 177.20800781 C115.43932455 168.02924682 152.29575561 154.9982826 176.17431641 163.83691406 C180.07322573 165.70189235 183.07034933 167.51359568 185.54931641 171.14941406 C186.48208238 176.23722849 185.91303032 179.12110861 183.23681641 183.52441406 C154.7951781 221.8162528 90.74936372 245.08096796 46.54931641 257.14941406 C46.54931641 261.11022108 47.97326864 262.59828293 50.20556641 265.85644531 C50.58612183 266.41829025 50.96667725 266.98013519 51.35876465 267.55900574 C52.58244546 269.36450208 53.81496078 271.16370209 55.04931641 272.96191406 C60.65306086 281.14179286 65.94326312 289.34309385 70.7121582 298.04248047 C73.76986028 303.21355244 77.61561939 307.63106418 81.54931641 312.14941406 C82.91760692 313.7575964 84.28018762 315.37049844 85.64233398 316.98388672 C86.57931067 318.09304079 87.51794852 319.20079373 88.45825195 320.30712891 C91.40940061 323.78119405 94.3058961 327.29386529 97.17431641 330.83691406 C100.79708979 335.28774993 104.56619596 339.57298956 108.43212891 343.81347656 C110.34011844 345.91860154 112.1997871 348.0555504 114.04931641 350.21191406 C123.52992651 361.07192009 134.3159204 370.21830983 145.81396484 378.84667969 C146.95546229 379.70360574 148.09422427 380.56418995 149.22998047 381.42871094 C167.23015806 395.08401808 186.54490157 403.23184659 208.54931641 408.14941406 C209.54318359 408.37757813 210.53705078 408.60574219 211.56103516 408.84082031 C231.37744307 412.79304672 250.02515655 409.74080072 267.82275391 400.43847656 C270.95729268 398.95653129 272.30664572 399.10031472 275.54931641 400.14941406 C270.02780365 412.61891419 250.77408059 420.16484479 238.85205078 424.94238281 C210.68255853 435.54797677 176.65317377 430.16667216 149.56103516 418.47753906 C139.84847616 414.02772189 131.23473643 408.10858684 122.69042969 401.74365234 C120.56952233 400.16445907 118.43328429 398.60787075 116.29541016 397.05175781 C100.84857063 385.66810097 87.30886957 372.4378486 74.54931641 358.14941406 C73.73978516 357.26640625 72.93025391 356.38339844 72.09619141 355.47363281 C67.78939353 350.76398819 63.7272842 345.93128909 59.78369141 340.91503906 C57.60061818 338.21291346 55.34958606 335.58829941 53.0690918 332.96875 C44.16171747 322.72685007 37.12121098 311.99589416 30.54931641 300.14941406 C30.51491455 300.72457764 30.4805127 301.29974121 30.44506836 301.89233398 C28.94899963 325.52558094 25.58836557 348.26792059 18.17431641 370.77441406 C17.9497879 371.46751678 17.7252594 372.16061951 17.493927 372.87472534 C9.04304995 398.66940829 -9.46549452 414.97657835 -33.18896484 427.09082031 C-59.36146174 439.83959165 -92.40549883 438.06027439 -119.38818359 429.02441406 C-127.02089279 426.3565641 -134.09652037 422.9936285 -141.0715332 418.90673828 C-144.48582339 416.75822907 -144.48582339 416.75822907 -148.35229492 416.39746094 C-150.82065826 417.2819937 -153.09226445 418.36851279 -155.43115234 419.55566406 C-169.33069976 426.48729807 -183.26368685 432.3309503 -197.98486328 437.28662109 C-199.69884255 437.88634414 -201.39806195 438.52927905 -203.08349609 439.20507812 C-214.10601179 443.60226157 -229.66811506 445.68002069 -241.20068359 442.02441406 C-245.55217211 439.51393992 -248.17619102 436.69839921 -250.45068359 432.14941406 C-251.57265803 421.37845945 -245.59274144 413.34542124 -239.11474609 405.33300781 C-235.98552399 401.55404541 -232.73061044 397.89601309 -229.40380859 394.29003906 C-227.82165752 392.55600148 -226.34121479 390.80242024 -224.88818359 388.96191406 C-222.36680463 386.05263064 -219.67983091 383.68874508 -216.75537109 381.20019531 C-214.04442593 378.7879136 -211.49593679 376.23318528 -208.95068359 373.64941406 C-205.80560163 370.46555048 -202.63733687 367.34268332 -199.26318359 364.39941406 C-198.68020508 363.88491699 -198.09722656 363.37041992 -197.49658203 362.84033203 C-195.45068359 361.14941406 -195.45068359 361.14941406 -193.3371582 359.81494141 C-190.85739758 358.10474187 -189.19636102 356.61932106 -187.45068359 354.14941406 C-186.55061585 349.24009122 -186.87925452 344.48708411 -187.20068359 339.52441406 C-187.91547119 326.27436982 -186.77439642 315.19452924 -179.26318359 303.96191406 C-178.87662598 303.38296387 -178.49006836 302.80401367 -178.09179688 302.20751953 C-174.35573289 296.74618863 -169.99557133 291.94632885 -165.45068359 287.14941406 C-164.29939103 285.79988569 -163.15326157 284.44592973 -162.01318359 283.08691406 C-136.28366406 253.68174888 -89.22994473 232.54021153 -50.45068359 229.14941406 C-28.25229217 228.03949449 -28.25229217 228.03949449 -20.33740234 232.28222656 C-18.49726649 233.32331094 -18.49726649 233.32331094 -16.49755859 232.93847656 C-14.06281987 231.99989408 -11.9289396 230.88612607 -9.70068359 229.52441406 C-8.50185547 228.82445312 -8.50185547 228.82445312 -7.27880859 228.11035156 C-5.18636001 226.23756514 -5.18636001 226.23756514 -5.02490234 223.27832031 C-6.25836195 204.16724814 -11.56853119 180.26685718 -25.45068359 166.14941406 C-29.50583719 162.71813025 -33.3294568 162.73361991 -38.45068359 163.14941406 C-41.17967485 163.83374826 -43.64496107 164.55659106 -46.26318359 165.52441406 C-47.34744629 165.91717529 -47.34744629 165.91717529 -48.45361328 166.31787109 C-59.99674674 170.68173862 -70.82532449 176.76223581 -81.20068359 183.39941406 C-90.92924369 189.44291352 -99.90293206 193.64324694 -111.45068359 193.77441406 C-112.14452148 193.78537109 -112.83835937 193.79632813 -113.55322266 193.80761719 C-118.94675922 193.65656691 -122.08931096 192.08610802 -126.45068359 189.14941406 C-129.25072652 185.89775131 -130.11417136 182.82547632 -129.91943359 178.50878906 C-127.93707401 168.53091247 -120.99237511 160.5524283 -114.45068359 153.14941406 C-113.73912109 152.30507813 -113.02755859 151.46074219 -112.29443359 150.59082031 C-99.25890683 135.45355101 -82.09487812 124.80193065 -65.21411133 114.44946289 C-55.17795231 108.29348359 -46.18600504 102.02978916 -37.45068359 94.14941406 C-35.49849362 92.5999755 -33.54031684 91.05804432 -31.57568359 89.52441406 C-22.73487846 82.30506664 -14.56856364 71.82210235 -13.21166992 60.08129883 C-12.37646938 45.83966293 -14.46219708 34.71245984 -23.94677734 23.53613281 C-28.84164659 18.87035262 -34.57335253 15.44278726 -40.45068359 12.14941406 C-41.37276611 11.59000122 -41.37276611 11.59000122 -42.31347656 11.01928711 C-47.75094452 7.93823757 -52.39799497 7.56835458 -58.57568359 7.71191406 C-59.44322266 7.70482422 -60.31076172 7.69773438 -61.20458984 7.69042969 C-66.34316104 7.74126791 -70.03109283 8.26231297 -74.45068359 11.14941406 C-82.27342009 20.92783469 -82.35083895 34.14311654 -81.45068359 46.14941406 C-79.68650908 55.77676642 -76.87297571 64.04963222 -68.88818359 70.08691406 C-57.52512 75.04004435 -44.15007567 71.949193 -33.01318359 67.89941406 C-30.09076451 67.04407189 -28.34317277 67.29868195 -25.45068359 68.14941406 C-25.45068359 69.46941406 -25.45068359 70.78941406 -25.45068359 72.14941406 C-27.82635645 73.99749847 -30.06181609 75.50684767 -32.63818359 77.02441406 C-33.36561768 77.46350098 -34.09305176 77.90258789 -34.8425293 78.35498047 C-45.22910905 84.52084119 -55.79974836 88.95400988 -67.45068359 92.14941406 C-68.06814453 92.34148437 -68.68560547 92.53355469 -69.32177734 92.73144531 C-79.89602785 94.80749082 -91.25807225 93.96427519 -100.45068359 88.14941406 C-107.96198784 82.26255085 -111.42274531 72.89801158 -113.06396484 63.71972656 C-114.76176357 48.0450999 -113.25114956 33.10633642 -103.45068359 20.14941406 C-90.34803769 4.21153176 -69.12829723 -5.87496078 -49.45068359 -10.85058594 C-48.71591797 -11.04136719 -47.98115234 -11.23214844 -47.22412109 -11.42871094 C-28.94313573 -14.20948054 -14.85439922 -10.57286235 0 0 Z " fill="#726354" transform="translate(672.45068359375,158.8505859375)"/>
<path d="M0 0 C0.64834654 1.269553 1.29357815 2.54069706 1.9375 3.8125 C2.47697266 4.87404297 2.47697266 4.87404297 3.02734375 5.95703125 C6.90657847 14.10498208 6.12734229 24.65563319 3.30932617 33.08081055 C-1.58812361 46.0761031 -9.05526527 57.4462511 -18 68 C-19.437876 69.79136493 -20.87536118 71.58304361 -22.3125 73.375 C-27.31239539 79.46970007 -32.59535537 85.26511628 -38 91 C-38.68964844 91.7321875 -39.37929688 92.464375 -40.08984375 93.21875 C-44.47752903 97.74102685 -49.19594511 101.72782757 -54.109375 105.66796875 C-56.95035341 107.95994728 -59.72345651 110.31813118 -62.5 112.6875 C-70.6821264 119.53840743 -79.36390793 125.73869754 -88 132 C-92.07887551 130.15127767 -94.4991598 127.46735048 -97.3125 124.0625 C-97.7974292 123.47621826 -98.2823584 122.88993652 -98.78198242 122.28588867 C-107.88992464 111.10885464 -113.62752722 99.47809012 -116.5546875 85.31640625 C-115.64135583 81.50228172 -112.64123033 79.6353808 -109.6875 77.3125 C-108.38408061 76.24642308 -107.08201027 75.17869479 -105.78125 74.109375 C-105.13414062 73.58279297 -104.48703125 73.05621094 -103.8203125 72.51367188 C-101.34994338 70.45944863 -99.02283412 68.26809333 -96.6875 66.0625 C-90.20546782 60.12222124 -83.20240906 54.89261055 -76.16992188 49.62597656 C-74.10318275 48.0773174 -72.04285714 46.52054761 -69.984375 44.9609375 C-66.68858217 42.46808686 -63.37930254 39.99409547 -60.06103516 37.53125 C-58.66277295 36.49240843 -57.26668037 35.45064143 -55.87255859 34.40625 C-45.13503867 26.37783699 -34.08795644 19.25244484 -22.51660156 12.48925781 C-19.92707206 10.95684319 -17.36334218 9.3880659 -14.8046875 7.8046875 C-13.97582031 7.29180176 -13.14695312 6.77891602 -12.29296875 6.25048828 C-10.71301244 5.27003478 -9.13480584 4.28675454 -7.55859375 3.30029297 C-2.21934427 0 -2.21934427 0 0 0 Z " fill="#FEFDFD" transform="translate(634,417)"/>
<path d="M0 0 C1.32 0 2.64 0 4 0 C4.6511869 34.3075313 3.79537795 68.42049597 -4 102 C-4.165 102.72751465 -4.33 103.4550293 -4.5 104.20458984 C-12.74557667 140.19041226 -12.74557667 140.19041226 -25 150 C-32.49727837 153.41875173 -40.22100673 153.42633643 -48.3125 153.3125 C-49.44623047 153.31572266 -50.57996094 153.31894531 -51.74804688 153.32226562 C-62.72377731 153.25347187 -73.3581643 152.00080037 -83.75 148.375 C-84.49660889 148.12065186 -85.24321777 147.86630371 -86.01245117 147.60424805 C-96.04496023 144.07345314 -105.96897471 139.64220729 -115 134 C-113.55093282 130.34991727 -111.92871693 129.06805813 -108.5625 127.125 C-95.6372248 119.22338249 -83.55809376 109.7718429 -72 100 C-71.02546875 99.19820312 -70.0509375 98.39640625 -69.046875 97.5703125 C-56.25172721 86.9934691 -43.66148497 75.75270444 -33 63 C-32.51611816 62.42846191 -32.03223633 61.85692383 -31.53369141 61.26806641 C-16.11977143 43.00821162 -2.35578601 24.50017451 0 0 Z " fill="#FDFDFD" transform="translate(669,422)"/>
<path d="M0 0 C3.96585366 3.3875 3.96585366 3.3875 4.5 6.125 C3.72059585 11.4834035 0.94071722 14.01287292 -3 17.5625 C-12.3021912 24.17984039 -22.2198884 29.52355953 -32.4375 34.5625 C-33.13176086 34.90700195 -33.82602173 35.25150391 -34.5413208 35.60644531 C-85.75577042 60.9540213 -85.75577042 60.9540213 -111.875 60.625 C-112.56335938 60.62048828 -113.25171875 60.61597656 -113.9609375 60.61132812 C-115.64066335 60.59966336 -117.32034375 60.58173271 -119 60.5625 C-119.5073957 57.35529138 -120.004579 54.14657837 -120.5 50.9375 C-120.64308594 50.03386719 -120.78617188 49.13023437 -120.93359375 48.19921875 C-121.06894531 47.31621094 -121.20429687 46.43320312 -121.34375 45.5234375 C-121.46943359 44.71696777 -121.59511719 43.91049805 -121.72460938 43.07958984 C-122.03691637 40.22508178 -122.04375031 37.43179101 -122 34.5625 C-106.98909052 26.25195518 -91.77593794 18.94238203 -75.875 12.5 C-75.11047516 12.18739227 -74.34595032 11.87478455 -73.55825806 11.55270386 C-60.01076458 6.03563082 -46.04484478 0.84776566 -31.5 -1.25 C-30.72229248 -1.36472656 -29.94458496 -1.47945313 -29.14331055 -1.59765625 C-7.42659928 -4.55093561 -7.42659928 -4.55093561 0 0 Z " fill="#FDFCFC" transform="translate(823,342.4375)"/>
<path d="M0 0 C0 0.66 0 1.32 0 2 C-1.74975586 3.24584961 -1.74975586 3.24584961 -4.21484375 4.65234375 C-5.12008789 5.17578369 -6.02533203 5.69922363 -6.95800781 6.23852539 C-8.43285645 7.07951782 -8.43285645 7.07951782 -9.9375 7.9375 C-19.10238441 13.25716892 -28.07802346 18.76893071 -36.91259766 24.61865234 C-39.07665978 26.05072995 -41.24711619 27.47277236 -43.41796875 28.89453125 C-53.36407566 35.4365192 -63.07639711 42.2592608 -72.67626953 49.29833984 C-75.09053859 51.06630111 -77.5117574 52.82445372 -79.93359375 54.58203125 C-88.14854671 60.56594192 -96.18652069 66.62134063 -103.84765625 73.3046875 C-106 75 -106 75 -108 75 C-111.09200875 68.81598251 -109.63888441 57.69266301 -107.5625 51.3125 C-98.93099594 31.07101513 -80.49762402 13.75474619 -60.29760742 5.50854492 C-56.90337174 4.21154698 -53.47004389 3.07579449 -50 2 C-49.32936523 1.78827148 -48.65873047 1.57654297 -47.96777344 1.35839844 C-34.12813312 -2.8259873 -13.42984714 -6.14417422 0 0 Z " fill="#FDFCFB" transform="translate(625,410)"/>
<path d="M0 0 C0.66 0 1.32 0 2 0 C2.35191406 0.95519531 2.70382812 1.91039062 3.06640625 2.89453125 C7.91388611 15.72560547 14.81221116 30.42147993 26.26953125 38.625 C26.84058594 39.07875 27.41164063 39.5325 28 40 C28 40.99 28 41.98 28 43 C-7.54154438 58.7417823 -7.54154438 58.7417823 -26 56 C-32.78587925 52.12801056 -32.78587925 52.12801056 -34 48 C-34.66330332 39.73780069 -29.83798389 33.4714179 -24.77734375 27.28125 C-22.55760323 24.81402555 -20.28688566 22.40489221 -18 20 C-16.78445346 18.61044369 -15.575598 17.21499228 -14.375 15.8125 C-11.57699641 12.59252371 -8.6196135 9.59030602 -5.5703125 6.609375 C-3.79666638 4.8484933 -3.79666638 4.8484933 -1.6875 2.0625 C-1.130625 1.381875 -0.57375 0.70125 0 0 Z " fill="#FCFCFB" transform="translate(487,526)"/>
<path d="M0 0 C1.5056904 5.80766296 2.21824777 10.9981863 2 17 C1.01 17 0.02 17 -1 17 C-1.64836042 15.25093469 -2.29358784 13.50070781 -2.9375 11.75 C-3.29714844 10.77546875 -3.65679688 9.8009375 -4.02734375 8.796875 C-4.81379655 6.53542839 -5.47251601 4.33203448 -6 2 C-2.25 0 -2.25 0 0 0 Z " fill="#F0EEE9" transform="translate(670,396)"/>
<path d="M0 0 C0.66 0.33 1.32 0.66 2 1 C-2.95 5.95 -7.9 10.9 -13 16 C-13.66 15.67 -14.32 15.34 -15 15 C-10.28109462 9.59947495 -5.69641143 4.38185495 0 0 Z " fill="#776B60" transform="translate(573,297)"/>
</svg>
